<?xml version="1.0" encoding="UTF-8"?>
<svg xmlns="http://www.w3.org/2000/svg" xmlns:xlink="http://www.w3.org/1999/xlink" width="164px" height="60px" viewBox="0 0 163 60" version="1.1">
<g id="surface1">
<path style=" stroke:none;fill-rule:nonzero;fill:rgb(65.098039%,65.098039%,65.098039%);fill-opacity:1;" d="M 148.527344 0 L 14.257812 0 C 13.710938 0 13.167969 0 12.621094 0.00390625 C 12.164062 0.0078125 11.710938 0.015625 11.246094 0.0234375 C 10.242188 0.0351562 9.242188 0.121094 8.25 0.289062 C 7.261719 0.457031 6.300781 0.773438 5.40625 1.226562 C 4.515625 1.6875 3.695312 2.285156 2.988281 2.996094 C 2.273438 3.707031 1.679688 4.527344 1.226562 5.425781 C 0.769531 6.324219 0.457031 7.289062 0.289062 8.28125 C 0.125 9.273438 0.0351562 10.277344 0.0234375 11.285156 C 0.0078125 11.746094 0.0078125 12.207031 0 12.667969 L 0 47.339844 C 0.0078125 47.804688 0.0078125 48.253906 0.0234375 48.722656 C 0.0351562 49.726562 0.125 50.730469 0.289062 51.722656 C 0.457031 52.71875 0.769531 53.679688 1.226562 54.578125 C 1.679688 55.476562 2.273438 56.296875 2.988281 57 C 3.695312 57.71875 4.511719 58.3125 5.40625 58.769531 C 6.300781 59.226562 7.261719 59.546875 8.25 59.714844 C 9.242188 59.878906 10.242188 59.96875 11.246094 59.980469 C 11.710938 59.992188 12.164062 59.996094 12.621094 59.996094 C 13.167969 60 13.710938 60 14.257812 60 L 148.527344 60 C 149.066406 60 149.613281 60 150.148438 59.996094 C 150.605469 59.996094 151.070312 59.992188 151.527344 59.980469 C 152.53125 59.96875 153.53125 59.878906 154.519531 59.714844 C 155.511719 59.542969 156.472656 59.226562 157.371094 58.769531 C 158.265625 58.3125 159.082031 57.714844 159.789062 57 C 160.503906 56.292969 161.097656 55.476562 161.558594 54.578125 C 162.007812 53.679688 162.320312 52.71875 162.484375 51.722656 C 162.648438 50.730469 162.742188 49.726562 162.761719 48.722656 C 162.765625 48.253906 162.765625 47.804688 162.765625 47.339844 C 162.777344 46.792969 162.777344 46.25 162.777344 45.695312 L 162.777344 14.304688 C 162.777344 13.753906 162.777344 13.210938 162.765625 12.667969 C 162.765625 12.207031 162.765625 11.746094 162.761719 11.285156 C 162.742188 10.277344 162.648438 9.273438 162.484375 8.28125 C 162.320312 7.289062 162.007812 6.328125 161.558594 5.425781 C 160.632812 3.621094 159.171875 2.152344 157.371094 1.226562 C 156.472656 0.773438 155.511719 0.457031 154.519531 0.285156 C 153.53125 0.121094 152.53125 0.03125 151.527344 0.0234375 C 151.070312 0.015625 150.605469 0.00390625 150.148438 0.00390625 C 149.613281 0 149.066406 0 148.527344 0 Z M 148.527344 0 "/>
<path style=" stroke:none;fill-rule:nonzero;fill:rgb(0%,0%,0%);fill-opacity:1;" d="M 12.628906 58.6875 C 12.171875 58.6875 11.726562 58.683594 11.277344 58.671875 C 10.339844 58.660156 9.40625 58.578125 8.480469 58.425781 C 7.617188 58.277344 6.785156 58 6.003906 57.605469 C 5.230469 57.210938 4.523438 56.699219 3.914062 56.078125 C 3.296875 55.46875 2.78125 54.761719 2.386719 53.984375 C 1.992188 53.203125 1.71875 52.363281 1.578125 51.5 C 1.421875 50.570312 1.339844 49.628906 1.328125 48.6875 C 1.316406 48.371094 1.304688 47.316406 1.304688 47.316406 L 1.304688 12.667969 C 1.304688 12.667969 1.320312 11.628906 1.328125 11.324219 C 1.339844 10.382812 1.421875 9.445312 1.574219 8.515625 C 1.71875 7.648438 1.992188 6.808594 2.386719 6.023438 C 2.777344 5.246094 3.289062 4.539062 3.90625 3.925781 C 4.519531 3.308594 5.226562 2.789062 6.003906 2.394531 C 6.78125 2 7.613281 1.722656 8.476562 1.578125 C 9.402344 1.425781 10.339844 1.34375 11.28125 1.332031 L 12.628906 1.3125 L 150.140625 1.3125 L 151.507812 1.332031 C 152.4375 1.34375 153.367188 1.425781 154.285156 1.574219 C 155.15625 1.722656 155.996094 2 156.785156 2.398438 C 158.335938 3.199219 159.597656 4.46875 160.394531 6.027344 C 160.785156 6.804688 161.054688 7.640625 161.195312 8.5 C 161.351562 9.4375 161.4375 10.382812 161.457031 11.332031 C 161.460938 11.757812 161.460938 12.210938 161.460938 12.667969 C 161.472656 13.230469 161.472656 13.765625 161.472656 14.304688 L 161.472656 45.695312 C 161.472656 46.242188 161.472656 46.773438 161.460938 47.308594 C 161.460938 47.796875 161.460938 48.246094 161.453125 48.703125 C 161.4375 49.636719 161.351562 50.566406 161.199219 51.484375 C 161.058594 52.355469 160.789062 53.203125 160.390625 53.988281 C 159.996094 54.757812 159.484375 55.460938 158.875 56.066406 C 158.261719 56.6875 157.554688 57.207031 156.78125 57.601562 C 155.996094 58 155.152344 58.277344 154.285156 58.425781 C 153.363281 58.578125 152.425781 58.660156 151.492188 58.671875 C 151.054688 58.683594 150.59375 58.6875 150.148438 58.6875 L 148.527344 58.691406 Z M 12.628906 58.6875 "/>
<path style=" stroke:none;fill-rule:nonzero;fill:rgb(100%,100%,100%);fill-opacity:1;" d="M 61.5625 24.832031 L 55.503906 24.832031 L 54.046875 29.140625 L 51.480469 29.140625 L 57.222656 13.199219 L 59.886719 13.199219 L 65.625 29.140625 L 63.015625 29.140625 Z M 56.132812 22.84375 L 60.933594 22.84375 L 58.566406 15.847656 L 58.5 15.847656 Z M 56.132812 22.84375 "/>
<path style=" stroke:none;fill-rule:nonzero;fill:rgb(100%,100%,100%);fill-opacity:1;" d="M 78.019531 23.328125 C 78.019531 26.941406 76.09375 29.261719 73.183594 29.261719 C 71.679688 29.34375 70.265625 28.550781 69.539062 27.230469 L 69.480469 27.230469 L 69.480469 32.988281 L 67.105469 32.988281 L 67.105469 17.515625 L 69.40625 17.515625 L 69.40625 19.449219 L 69.449219 19.449219 C 70.207031 18.136719 71.625 17.347656 73.140625 17.394531 C 76.082031 17.394531 78.019531 19.726562 78.019531 23.328125 Z M 75.574219 23.328125 C 75.574219 20.976562 74.363281 19.429688 72.511719 19.429688 C 70.695312 19.429688 69.472656 21.007812 69.472656 23.328125 C 69.472656 25.671875 70.695312 27.242188 72.511719 27.242188 C 74.363281 27.242188 75.574219 25.703125 75.574219 23.328125 Z M 75.574219 23.328125 "/>
<path style=" stroke:none;fill-rule:nonzero;fill:rgb(100%,100%,100%);fill-opacity:1;" d="M 90.777344 23.328125 C 90.777344 26.941406 88.847656 29.261719 85.9375 29.261719 C 84.433594 29.34375 83.019531 28.550781 82.292969 27.230469 L 82.238281 27.230469 L 82.238281 32.988281 L 79.859375 32.988281 L 79.859375 17.515625 L 82.160156 17.515625 L 82.160156 19.449219 L 82.203125 19.449219 C 82.964844 18.136719 84.382812 17.347656 85.894531 17.394531 C 88.835938 17.394531 90.777344 19.726562 90.777344 23.328125 Z M 88.328125 23.328125 C 88.328125 20.976562 87.117188 19.429688 85.265625 19.429688 C 83.449219 19.429688 82.226562 21.007812 82.226562 23.328125 C 82.226562 25.671875 83.449219 27.242188 85.265625 27.242188 C 87.117188 27.242188 88.328125 25.703125 88.328125 23.328125 Z M 88.328125 23.328125 "/>
<path style=" stroke:none;fill-rule:nonzero;fill:rgb(100%,100%,100%);fill-opacity:1;" d="M 99.203125 24.699219 C 99.378906 26.28125 100.910156 27.316406 103.003906 27.316406 C 105.007812 27.316406 106.453125 26.28125 106.453125 24.855469 C 106.453125 23.617188 105.582031 22.875 103.523438 22.367188 L 101.460938 21.871094 C 98.542969 21.164062 97.1875 19.792969 97.1875 17.570312 C 97.1875 14.820312 99.578125 12.933594 102.96875 12.933594 C 106.332031 12.933594 108.632812 14.820312 108.710938 17.570312 L 106.308594 17.570312 C 106.164062 15.980469 104.855469 15.019531 102.9375 15.019531 C 101.023438 15.019531 99.710938 15.992188 99.710938 17.40625 C 99.710938 18.535156 100.546875 19.195312 102.597656 19.703125 L 104.347656 20.136719 C 107.609375 20.910156 108.964844 22.222656 108.964844 24.554688 C 108.964844 27.539062 106.59375 29.40625 102.828125 29.40625 C 99.304688 29.40625 96.921875 27.582031 96.769531 24.699219 Z M 99.203125 24.699219 "/>
<path style=" stroke:none;fill-rule:nonzero;fill:rgb(100%,100%,100%);fill-opacity:1;" d="M 114.097656 14.765625 L 114.097656 17.515625 L 116.304688 17.515625 L 116.304688 19.40625 L 114.097656 19.40625 L 114.097656 25.816406 C 114.097656 26.8125 114.539062 27.273438 115.507812 27.273438 C 115.769531 27.269531 116.03125 27.25 116.292969 27.21875 L 116.292969 29.097656 C 115.855469 29.179688 115.414062 29.214844 114.96875 29.207031 C 112.625 29.207031 111.710938 28.324219 111.710938 26.070312 L 111.710938 19.40625 L 110.023438 19.40625 L 110.023438 17.515625 L 111.710938 17.515625 L 111.710938 14.765625 Z M 114.097656 14.765625 "/>
<path style=" stroke:none;fill-rule:nonzero;fill:rgb(100%,100%,100%);fill-opacity:1;" d="M 117.578125 23.328125 C 117.578125 19.671875 119.726562 17.375 123.074219 17.375 C 126.433594 17.375 128.570312 19.671875 128.570312 23.328125 C 128.570312 26.996094 126.445312 29.285156 123.074219 29.285156 C 119.703125 29.285156 117.578125 26.996094 117.578125 23.328125 Z M 126.148438 23.328125 C 126.148438 20.820312 125.003906 19.339844 123.074219 19.339844 C 121.148438 19.339844 120 20.832031 120 23.328125 C 120 25.847656 121.148438 27.316406 123.074219 27.316406 C 125.003906 27.316406 126.148438 25.847656 126.148438 23.328125 Z M 126.148438 23.328125 "/>
<path style=" stroke:none;fill-rule:nonzero;fill:rgb(100%,100%,100%);fill-opacity:1;" d="M 130.535156 17.515625 L 132.800781 17.515625 L 132.800781 19.496094 L 132.855469 19.496094 C 133.171875 18.222656 134.335938 17.34375 135.644531 17.394531 C 135.917969 17.394531 136.191406 17.425781 136.460938 17.484375 L 136.460938 19.714844 C 136.113281 19.609375 135.753906 19.5625 135.390625 19.570312 C 134.691406 19.542969 134.015625 19.824219 133.539062 20.335938 C 133.0625 20.851562 132.832031 21.550781 132.910156 22.246094 L 132.910156 29.140625 L 130.535156 29.140625 Z M 130.535156 17.515625 "/>
<path style=" stroke:none;fill-rule:nonzero;fill:rgb(100%,100%,100%);fill-opacity:1;" d="M 147.425781 25.726562 C 146.886719 28 144.753906 29.519531 142.4375 29.285156 C 139.066406 29.285156 136.972656 27.019531 136.972656 23.386719 C 136.972656 19.738281 139.078125 17.375 142.335938 17.375 C 145.542969 17.375 147.558594 19.582031 147.558594 23.109375 L 147.558594 23.925781 L 139.375 23.925781 L 139.375 24.070312 C 139.296875 24.933594 139.597656 25.792969 140.191406 26.421875 C 140.789062 27.050781 141.625 27.394531 142.492188 27.363281 C 143.644531 27.46875 144.734375 26.804688 145.167969 25.726562 Z M 139.386719 22.257812 L 145.179688 22.257812 C 145.222656 21.480469 144.941406 20.71875 144.402344 20.160156 C 143.863281 19.601562 143.113281 19.289062 142.335938 19.308594 C 141.554688 19.304688 140.804688 19.613281 140.25 20.164062 C 139.695312 20.71875 139.382812 21.472656 139.386719 22.257812 Z M 139.386719 22.257812 "/>
<path style=" stroke:none;fill-rule:nonzero;fill:rgb(100%,100%,100%);fill-opacity:1;" d="M 54.488281 46.21875 L 54.585938 44.988281 C 55.046875 45.136719 55.523438 45.214844 56.007812 45.214844 C 56.445312 45.214844 56.613281 45.171875 56.824219 44.875 C 57.339844 43.792969 57.5625 42.597656 57.472656 41.402344 C 57.472656 40.128906 57.078125 39.761719 56.078125 39.761719 C 55.851562 39.761719 55.601562 39.777344 55.316406 39.792969 C 54.78125 41.984375 53.886719 44.074219 52.671875 45.976562 L 51.503906 45.339844 C 52.644531 43.699219 53.476562 41.859375 53.964844 39.917969 C 53.195312 40.003906 52.429688 40.128906 51.671875 40.300781 L 51.417969 39.058594 C 52.277344 38.902344 53.304688 38.761719 54.261719 38.675781 C 54.457031 37.738281 54.605469 36.789062 54.699219 35.835938 L 56.078125 35.992188 C 55.953125 36.855469 55.796875 37.714844 55.601562 38.5625 L 56.148438 38.5625 C 57.9375 38.5625 58.796875 39.453125 58.796875 41.34375 C 58.875 42.789062 58.59375 44.230469 57.980469 45.539062 C 57.648438 46.152344 56.984375 46.511719 56.289062 46.441406 C 55.683594 46.4375 55.078125 46.363281 54.488281 46.21875 Z M 59.019531 38.605469 L 60.046875 37.914062 C 61.472656 39.292969 62.332031 41.15625 62.457031 43.140625 L 61.105469 43.351562 C 61.085938 41.550781 60.332031 39.835938 59.019531 38.605469 Z M 59.019531 38.605469 "/>
<path style=" stroke:none;fill-rule:nonzero;fill:rgb(100%,100%,100%);fill-opacity:1;" d="M 67.125 46.414062 L 66.84375 45.144531 C 67.195312 45.171875 67.660156 45.1875 67.941406 45.1875 C 70.726562 45.1875 71.785156 44.394531 71.785156 43.222656 C 71.785156 42.292969 71.179688 41.753906 69.828125 41.753906 C 68.355469 41.890625 66.980469 42.5625 65.96875 43.648438 L 64.886719 43.167969 C 64.679688 41.316406 65.101562 39.453125 66.082031 37.871094 L 67.335938 38.28125 C 66.554688 39.339844 66.175781 40.640625 66.265625 41.953125 C 67.394531 41.15625 68.730469 40.699219 70.109375 40.640625 C 71.996094 40.640625 73.164062 41.613281 73.164062 43.195312 C 73.164062 45.199219 71.585938 46.429688 67.800781 46.429688 C 67.617188 46.429688 67.351562 46.414062 67.125 46.414062 Z M 65.816406 37.039062 L 66.167969 35.792969 C 68.039062 36.082031 69.890625 36.507812 71.699219 37.066406 L 71.363281 38.296875 C 69.554688 37.710938 67.699219 37.289062 65.816406 37.039062 Z M 65.816406 37.039062 "/>
<path style=" stroke:none;fill-rule:nonzero;fill:rgb(100%,100%,100%);fill-opacity:1;" d="M 77.242188 45.441406 C 78.695312 44.960938 79.996094 44.113281 81.027344 42.984375 C 80.210938 42.304688 79.328125 41.707031 78.394531 41.203125 L 79.171875 40.230469 C 80.113281 40.710938 81.007812 41.277344 81.84375 41.925781 C 82.515625 40.941406 82.988281 39.832031 83.226562 38.660156 L 79.632812 38.660156 C 78.808594 40.003906 77.773438 41.199219 76.566406 42.207031 L 75.539062 41.316406 C 77.273438 39.878906 78.621094 38.023438 79.453125 35.921875 L 80.804688 36.246094 C 80.648438 36.644531 80.492188 37.050781 80.3125 37.433594 L 83.800781 37.433594 L 84.800781 37.898438 C 84.308594 41.804688 81.71875 45.125 78.058594 46.542969 Z M 83.183594 35.585938 L 83.972656 35.203125 C 84.371094 35.738281 84.707031 36.324219 84.96875 36.9375 L 84.082031 37.347656 C 83.859375 36.722656 83.558594 36.132812 83.183594 35.585938 Z M 84.941406 35.441406 L 85.746094 35.0625 C 86.148438 35.617188 86.496094 36.210938 86.773438 36.839844 L 85.886719 37.222656 C 85.648438 36.589844 85.332031 35.992188 84.941406 35.441406 Z M 84.941406 35.441406 "/>
<path style=" stroke:none;fill-rule:nonzero;fill:rgb(100%,100%,100%);fill-opacity:1;" d="M 91.101562 46.484375 L 90.386719 45.339844 C 93.390625 44.859375 95.539062 42.160156 95.339844 39.113281 L 89.425781 39.113281 L 89.425781 41.953125 L 88.003906 41.953125 L 88.003906 37.914062 L 91.539062 37.914062 L 91.539062 35.835938 L 92.960938 35.835938 L 92.960938 37.914062 L 95.59375 37.914062 L 96.890625 38.28125 C 96.71875 42.292969 95.382812 45.355469 91.101562 46.484375 Z M 91.101562 46.484375 "/>
<path style=" stroke:none;fill-rule:nonzero;fill:rgb(100%,100%,100%);fill-opacity:1;" d="M 99.628906 38.011719 L 100.417969 36.855469 C 101.648438 37.417969 102.808594 38.125 103.878906 38.960938 L 102.976562 40.171875 C 101.953125 39.320312 100.828125 38.59375 99.628906 38.011719 Z M 99.894531 44.976562 C 103.390625 44.449219 106.417969 42.257812 108.019531 39.097656 L 108.949219 40.144531 C 107.210938 43.40625 104.066406 45.671875 100.429688 46.289062 Z M 99.894531 44.976562 "/>
<path style=" stroke:none;fill-rule:nonzero;fill:rgb(100%,100%,100%);fill-opacity:1;" d="M 120.488281 45.652344 L 111.632812 45.652344 L 111.632812 37.25 L 120.488281 37.25 Z M 113.027344 38.550781 L 113.027344 44.355469 L 119.078125 44.355469 L 119.078125 38.550781 Z M 113.027344 38.550781 "/>
<path style=" stroke:none;fill-rule:nonzero;fill:rgb(100%,100%,100%);fill-opacity:1;" d="M 133.164062 41.882812 L 123.210938 41.882812 L 123.210938 40.441406 L 133.164062 40.441406 Z M 133.164062 41.882812 "/>
<path style=" stroke:none;fill-rule:nonzero;fill:rgb(100%,100%,100%);fill-opacity:1;" d="M 136.550781 35.878906 L 137.945312 35.878906 L 137.945312 39.496094 C 139.796875 40.269531 141.59375 41.171875 143.324219 42.195312 L 142.535156 43.433594 C 141.070312 42.496094 139.535156 41.667969 137.945312 40.964844 L 137.945312 46.414062 L 136.550781 46.414062 Z M 139.859375 36.644531 L 140.691406 36.246094 C 141.097656 36.847656 141.433594 37.492188 141.691406 38.167969 L 140.777344 38.578125 C 140.554688 37.894531 140.246094 37.246094 139.859375 36.644531 Z M 141.464844 36.035156 L 142.308594 35.640625 C 142.738281 36.234375 143.09375 36.878906 143.367188 37.558594 L 142.449219 37.96875 C 142.199219 37.289062 141.867188 36.640625 141.464844 36.035156 Z M 141.464844 36.035156 "/>
<path style=" stroke:none;fill-rule:nonzero;fill:rgb(100%,100%,100%);fill-opacity:1;" d="M 37.039062 30.449219 C 37.074219 27.90625 38.402344 25.554688 40.5625 24.222656 C 39.195312 22.261719 36.980469 21.0625 34.59375 20.988281 C 32.085938 20.722656 29.648438 22.492188 28.371094 22.492188 C 27.066406 22.492188 25.09375 21.011719 22.972656 21.054688 C 20.183594 21.148438 17.644531 22.699219 16.285156 25.148438 C 13.394531 30.171875 15.550781 37.550781 18.320312 41.613281 C 19.707031 43.601562 21.328125 45.820312 23.445312 45.742188 C 25.519531 45.65625 26.296875 44.414062 28.800781 44.414062 C 31.28125 44.414062 32.007812 45.742188 34.167969 45.691406 C 36.394531 45.65625 37.796875 43.695312 39.132812 41.6875 C 40.128906 40.273438 40.898438 38.707031 41.40625 37.050781 C 38.761719 35.929688 37.042969 33.328125 37.039062 30.449219 Z M 37.039062 30.449219 "/>
<path style=" stroke:none;fill-rule:nonzero;fill:rgb(100%,100%,100%);fill-opacity:1;" d="M 32.953125 18.316406 C 34.167969 16.855469 34.765625 14.976562 34.621094 13.082031 C 32.765625 13.277344 31.054688 14.164062 29.824219 15.570312 C 28.609375 16.957031 27.996094 18.769531 28.113281 20.613281 C 29.992188 20.632812 31.777344 19.785156 32.953125 18.316406 Z M 32.953125 18.316406 "/>
</g>
</svg>
