<?xml version="1.0" encoding="UTF-8"?>
<svg xmlns="http://www.w3.org/2000/svg" xmlns:xlink="http://www.w3.org/1999/xlink" width="220px" height="63px" viewBox="0 0 220 63" version="1.1">
  <title>Download_on_the_Mac_App_Store_Badge_JP_RGB_blk_100317</title>
<g id="surface1">
<path style=" stroke:none;fill-rule:nonzero;fill:rgb(65.098039%,65.098039%,65.098039%);fill-opacity:1;" d="M 205.3125 0 L 14.984375 0 C 14.40625 0 13.835938 0 13.261719 0.00390625 C 12.78125 0.0078125 12.304688 0.015625 11.820312 0.0234375 C 10.761719 0.0351562 9.710938 0.128906 8.667969 0.300781 C 7.628906 0.476562 6.625 0.8125 5.683594 1.289062 C 4.742188 1.769531 3.886719 2.398438 3.140625 3.144531 C 2.390625 3.890625 1.765625 4.753906 1.289062 5.699219 C 0.808594 6.640625 0.480469 7.652344 0.304688 8.695312 C 0.128906 9.738281 0.0351562 10.792969 0.0234375 11.847656 C 0.0078125 12.332031 0.0078125 12.816406 0 13.300781 L 0 49.703125 C 0.0078125 50.195312 0.0078125 50.667969 0.0234375 51.15625 C 0.0351562 52.214844 0.128906 53.269531 0.304688 54.308594 C 0.476562 55.355469 0.808594 56.367188 1.289062 57.308594 C 1.761719 58.25 2.390625 59.109375 3.140625 59.851562 C 3.882812 60.601562 4.742188 61.230469 5.683594 61.707031 C 6.625 62.1875 7.628906 62.523438 8.667969 62.703125 C 9.710938 62.871094 10.761719 62.964844 11.820312 62.980469 C 12.304688 62.992188 12.78125 62.996094 13.261719 62.996094 C 13.835938 63 14.40625 63 14.984375 63 L 205.3125 63 C 205.878906 63 206.453125 63 207.015625 62.996094 C 207.496094 62.996094 207.988281 62.992188 208.464844 62.980469 C 209.519531 62.96875 210.570312 62.875 211.609375 62.703125 C 212.652344 62.519531 213.660156 62.1875 214.605469 61.707031 C 215.546875 61.230469 216.40625 60.601562 217.148438 59.851562 C 217.894531 59.105469 218.523438 58.25 219.003906 57.308594 C 219.480469 56.363281 219.808594 55.351562 219.976562 54.308594 C 220.152344 53.265625 220.25 52.214844 220.269531 51.15625 C 220.277344 50.667969 220.277344 50.195312 220.277344 49.703125 C 220.289062 49.132812 220.289062 48.5625 220.289062 47.980469 L 220.289062 15.019531 C 220.289062 14.441406 220.289062 13.871094 220.277344 13.300781 C 220.277344 12.816406 220.277344 12.332031 220.269531 11.847656 C 220.25 10.792969 220.152344 9.738281 219.976562 8.695312 C 219.808594 7.652344 219.480469 6.640625 219.003906 5.699219 C 218.035156 3.804688 216.496094 2.261719 214.605469 1.289062 C 213.660156 0.8125 212.652344 0.480469 211.609375 0.300781 C 210.570312 0.128906 209.519531 0.0351562 208.464844 0.0234375 C 207.988281 0.015625 207.496094 0.0078125 207.015625 0.00390625 C 206.453125 0 205.878906 0 205.3125 0 Z M 205.3125 0 "/>
<path style=" stroke:none;fill-rule:nonzero;fill:rgb(0%,0%,0%);fill-opacity:1;" d="M 13.269531 61.621094 C 12.792969 61.621094 12.324219 61.617188 11.847656 61.605469 C 10.867188 61.59375 9.882812 61.507812 8.914062 61.347656 C 8.007812 61.191406 7.128906 60.902344 6.308594 60.484375 C 5.496094 60.074219 4.753906 59.53125 4.113281 58.882812 C 3.460938 58.242188 2.921875 57.5 2.511719 56.683594 C 2.09375 55.863281 1.804688 54.984375 1.65625 54.074219 C 1.496094 53.097656 1.40625 52.109375 1.394531 51.121094 C 1.386719 50.789062 1.371094 49.683594 1.371094 49.683594 L 1.371094 13.300781 C 1.371094 13.300781 1.386719 12.210938 1.394531 11.890625 C 1.40625 10.902344 1.492188 9.917969 1.65625 8.941406 C 1.804688 8.03125 2.09375 7.148438 2.507812 6.324219 C 2.917969 5.507812 3.457031 4.765625 4.105469 4.121094 C 4.75 3.472656 5.492188 2.929688 6.308594 2.511719 C 7.125 2.097656 8.003906 1.808594 8.90625 1.65625 C 9.878906 1.496094 10.867188 1.410156 11.851562 1.398438 L 13.269531 1.378906 L 207.007812 1.378906 L 208.445312 1.398438 C 209.421875 1.410156 210.398438 1.496094 211.363281 1.652344 C 212.277344 1.808594 213.164062 2.101562 213.988281 2.515625 C 215.621094 3.359375 216.949219 4.691406 217.785156 6.328125 C 218.195312 7.148438 218.476562 8.023438 218.625 8.925781 C 218.789062 9.910156 218.878906 10.902344 218.898438 11.898438 C 218.902344 12.34375 218.902344 12.824219 218.902344 13.300781 C 218.917969 13.890625 218.917969 14.453125 218.917969 15.019531 L 218.917969 47.980469 C 218.917969 48.554688 218.917969 49.113281 218.902344 49.675781 C 218.902344 50.1875 218.902344 50.65625 218.898438 51.140625 C 218.878906 52.117188 218.789062 53.09375 218.628906 54.058594 C 218.480469 54.972656 218.195312 55.863281 217.78125 56.6875 C 217.367188 57.496094 216.828125 58.234375 216.183594 58.871094 C 215.542969 59.523438 214.800781 60.066406 213.984375 60.480469 C 213.160156 60.902344 212.277344 61.191406 211.363281 61.347656 C 210.394531 61.507812 209.410156 61.59375 208.425781 61.605469 C 207.964844 61.617188 207.484375 61.621094 207.015625 61.621094 L 205.3125 61.625 Z M 13.269531 61.621094 "/>
<path style=" stroke:none;fill-rule:nonzero;fill:rgb(100%,100%,100%);fill-opacity:1;" d="M 70.074219 30.597656 L 70.074219 18.277344 L 69.992188 18.277344 L 64.957031 30.472656 L 63.035156 30.472656 L 57.988281 18.277344 L 57.90625 18.277344 L 57.90625 30.597656 L 55.546875 30.597656 L 55.546875 13.855469 L 58.542969 13.855469 L 63.949219 27.070312 L 64.042969 27.070312 L 69.4375 13.855469 L 72.445312 13.855469 L 72.445312 30.597656 Z M 70.074219 30.597656 "/>
<path style=" stroke:none;fill-rule:nonzero;fill:rgb(100%,100%,100%);fill-opacity:1;" d="M 74.441406 27.128906 C 74.441406 24.996094 76.070312 23.707031 78.96875 23.53125 L 82.300781 23.347656 L 82.300781 22.417969 C 82.300781 21.0625 81.410156 20.296875 79.890625 20.296875 C 78.730469 20.140625 77.632812 20.875 77.335938 22.011719 L 74.996094 22.011719 C 75.066406 19.808594 77.113281 18.242188 79.960938 18.242188 C 82.867188 18.242188 84.789062 19.832031 84.789062 22.234375 L 84.789062 30.597656 L 82.394531 30.597656 L 82.394531 28.589844 L 82.335938 28.589844 C 81.554688 29.976562 80.082031 30.828125 78.492188 30.808594 C 77.457031 30.910156 76.425781 30.566406 75.652344 29.867188 C 74.882812 29.167969 74.441406 28.171875 74.441406 27.128906 Z M 82.300781 26.027344 L 82.300781 25.085938 L 79.300781 25.273438 C 77.808594 25.367188 76.964844 26.015625 76.964844 27.058594 C 76.964844 28.128906 77.84375 28.824219 79.1875 28.824219 C 79.972656 28.878906 80.746094 28.609375 81.332031 28.082031 C 81.917969 27.558594 82.269531 26.816406 82.300781 26.027344 Z M 82.300781 26.027344 "/>
<path style=" stroke:none;fill-rule:nonzero;fill:rgb(100%,100%,100%);fill-opacity:1;" d="M 95.285156 22.59375 C 95.058594 21.207031 93.808594 20.230469 92.414062 20.34375 C 90.492188 20.34375 89.21875 21.957031 89.21875 24.496094 C 89.21875 27.09375 90.503906 28.660156 92.4375 28.660156 C 93.816406 28.800781 95.0625 27.839844 95.285156 26.46875 L 97.691406 26.46875 C 97.382812 29.09375 95.039062 30.992188 92.414062 30.75 C 88.941406 30.75 86.671875 28.371094 86.671875 24.496094 C 86.671875 20.703125 88.941406 18.242188 92.390625 18.242188 C 95.035156 18.019531 97.378906 19.949219 97.671875 22.59375 Z M 95.285156 22.59375 "/>
<path style=" stroke:none;fill-rule:nonzero;fill:rgb(100%,100%,100%);fill-opacity:1;" d="M 113.933594 26.074219 L 107.570312 26.074219 L 106.039062 30.597656 L 103.34375 30.597656 L 109.375 13.855469 L 112.175781 13.855469 L 118.207031 30.597656 L 115.464844 30.597656 Z M 108.226562 23.984375 L 113.273438 23.984375 L 110.785156 16.640625 L 110.71875 16.640625 Z M 108.226562 23.984375 "/>
<path style=" stroke:none;fill-rule:nonzero;fill:rgb(100%,100%,100%);fill-opacity:1;" d="M 131.230469 24.496094 C 131.230469 28.289062 129.203125 30.726562 126.148438 30.726562 C 124.566406 30.808594 123.078125 29.980469 122.316406 28.589844 L 122.257812 28.589844 L 122.257812 34.636719 L 119.757812 34.636719 L 119.757812 18.394531 L 122.179688 18.394531 L 122.179688 20.421875 L 122.222656 20.421875 C 123.019531 19.042969 124.511719 18.214844 126.101562 18.265625 C 129.191406 18.265625 131.230469 20.714844 131.230469 24.496094 Z M 128.660156 24.496094 C 128.660156 22.023438 127.386719 20.398438 125.441406 20.398438 C 123.53125 20.398438 122.246094 22.058594 122.246094 24.496094 C 122.246094 26.957031 123.53125 28.601562 125.441406 28.601562 C 127.386719 28.601562 128.660156 26.988281 128.660156 24.496094 Z M 128.660156 24.496094 "/>
<path style=" stroke:none;fill-rule:nonzero;fill:rgb(100%,100%,100%);fill-opacity:1;" d="M 144.632812 24.496094 C 144.632812 28.289062 142.605469 30.726562 139.550781 30.726562 C 137.96875 30.808594 136.480469 29.980469 135.71875 28.589844 L 135.660156 28.589844 L 135.660156 34.636719 L 133.160156 34.636719 L 133.160156 18.394531 L 135.582031 18.394531 L 135.582031 20.421875 L 135.625 20.421875 C 136.425781 19.042969 137.914062 18.214844 139.503906 18.265625 C 142.59375 18.265625 144.632812 20.714844 144.632812 24.496094 Z M 142.0625 24.496094 C 142.0625 22.023438 140.789062 20.398438 138.84375 20.398438 C 136.933594 20.398438 135.648438 22.058594 135.648438 24.496094 C 135.648438 26.957031 136.933594 28.601562 138.84375 28.601562 C 140.789062 28.601562 142.0625 26.988281 142.0625 24.496094 Z M 142.0625 24.496094 "/>
<path style=" stroke:none;fill-rule:nonzero;fill:rgb(100%,100%,100%);fill-opacity:1;" d="M 153.492188 25.933594 C 153.675781 27.59375 155.285156 28.683594 157.484375 28.683594 C 159.589844 28.683594 161.105469 27.59375 161.105469 26.097656 C 161.105469 24.796875 160.191406 24.019531 158.027344 23.488281 L 155.863281 22.964844 C 152.796875 22.222656 151.371094 20.785156 151.371094 18.449219 C 151.371094 15.5625 153.882812 13.578125 157.449219 13.578125 C 160.980469 13.578125 163.398438 15.5625 163.480469 18.449219 L 160.957031 18.449219 C 160.804688 16.78125 159.425781 15.773438 157.414062 15.773438 C 155.402344 15.773438 154.023438 16.792969 154.023438 18.277344 C 154.023438 19.460938 154.902344 20.15625 157.054688 20.691406 L 158.894531 21.144531 C 162.324219 21.953125 163.746094 23.335938 163.746094 25.785156 C 163.746094 28.914062 161.257812 30.878906 157.296875 30.878906 C 153.59375 30.878906 151.09375 28.960938 150.933594 25.933594 Z M 153.492188 25.933594 "/>
<path style=" stroke:none;fill-rule:nonzero;fill:rgb(100%,100%,100%);fill-opacity:1;" d="M 169.140625 15.503906 L 169.140625 18.394531 L 171.457031 18.394531 L 171.457031 20.375 L 169.140625 20.375 L 169.140625 27.105469 C 169.140625 28.152344 169.605469 28.636719 170.621094 28.636719 C 170.898438 28.632812 171.171875 28.613281 171.445312 28.582031 L 171.445312 30.550781 C 170.988281 30.636719 170.523438 30.675781 170.054688 30.667969 C 167.589844 30.667969 166.628906 29.738281 166.628906 27.371094 L 166.628906 20.375 L 164.859375 20.375 L 164.859375 18.394531 L 166.628906 18.394531 L 166.628906 15.503906 Z M 169.140625 15.503906 "/>
<path style=" stroke:none;fill-rule:nonzero;fill:rgb(100%,100%,100%);fill-opacity:1;" d="M 172.796875 24.496094 C 172.796875 20.65625 175.054688 18.242188 178.570312 18.242188 C 182.101562 18.242188 184.347656 20.65625 184.347656 24.496094 C 184.347656 28.347656 182.113281 30.75 178.570312 30.75 C 175.03125 30.75 172.796875 28.347656 172.796875 24.496094 Z M 181.800781 24.496094 C 181.800781 21.863281 180.597656 20.308594 178.570312 20.308594 C 176.546875 20.308594 175.34375 21.875 175.34375 24.496094 C 175.34375 27.140625 176.546875 28.683594 178.570312 28.683594 C 180.597656 28.683594 181.800781 27.140625 181.800781 24.496094 Z M 181.800781 24.496094 "/>
<path style=" stroke:none;fill-rule:nonzero;fill:rgb(100%,100%,100%);fill-opacity:1;" d="M 186.410156 18.394531 L 188.792969 18.394531 L 188.792969 20.46875 L 188.851562 20.46875 C 189.183594 19.132812 190.40625 18.210938 191.78125 18.265625 C 192.070312 18.265625 192.355469 18.296875 192.636719 18.359375 L 192.636719 20.703125 C 192.273438 20.589844 191.894531 20.539062 191.515625 20.550781 C 190.777344 20.519531 190.066406 20.8125 189.566406 21.355469 C 189.066406 21.894531 188.824219 22.625 188.910156 23.359375 L 188.910156 30.597656 L 186.410156 30.597656 Z M 186.410156 18.394531 "/>
<path style=" stroke:none;fill-rule:nonzero;fill:rgb(100%,100%,100%);fill-opacity:1;" d="M 204.160156 27.011719 C 203.59375 29.398438 201.351562 30.996094 198.917969 30.75 C 195.375 30.75 193.175781 28.371094 193.175781 24.554688 C 193.175781 20.726562 195.386719 18.242188 198.8125 18.242188 C 202.183594 18.242188 204.300781 20.5625 204.300781 24.261719 L 204.300781 25.121094 L 195.699219 25.121094 L 195.699219 25.273438 C 195.621094 26.183594 195.933594 27.082031 196.558594 27.742188 C 197.1875 28.402344 198.066406 28.765625 198.976562 28.730469 C 200.1875 28.84375 201.332031 28.144531 201.789062 27.015625 Z M 195.710938 23.371094 L 201.800781 23.371094 C 201.84375 22.554688 201.550781 21.753906 200.980469 21.167969 C 200.414062 20.578125 199.628906 20.253906 198.8125 20.273438 C 197.992188 20.269531 197.199219 20.59375 196.617188 21.175781 C 196.035156 21.753906 195.710938 22.546875 195.710938 23.371094 Z M 195.710938 23.371094 "/>
<path style=" stroke:none;fill-rule:nonzero;fill:rgb(100%,100%,100%);fill-opacity:1;" d="M 57.257812 48.527344 L 57.359375 47.238281 C 57.84375 47.394531 58.347656 47.472656 58.855469 47.476562 C 59.3125 47.476562 59.492188 47.429688 59.714844 47.121094 C 60.253906 45.984375 60.488281 44.726562 60.394531 43.472656 C 60.394531 42.136719 59.980469 41.75 58.929688 41.75 C 58.691406 41.75 58.425781 41.765625 58.128906 41.78125 C 57.566406 44.085938 56.625 46.277344 55.347656 48.277344 L 54.121094 47.609375 C 55.320312 45.882812 56.195312 43.953125 56.710938 41.914062 C 55.898438 42.003906 55.09375 42.136719 54.296875 42.316406 L 54.03125 41.011719 C 54.933594 40.847656 56.015625 40.699219 57.019531 40.609375 C 57.226562 39.625 57.378906 38.628906 57.480469 37.628906 L 58.929688 37.792969 C 58.796875 38.695312 58.632812 39.601562 58.425781 40.492188 L 59.003906 40.492188 C 60.882812 40.492188 61.785156 41.425781 61.785156 43.414062 C 61.867188 44.929688 61.570312 46.441406 60.925781 47.816406 C 60.578125 48.460938 59.878906 48.835938 59.152344 48.765625 C 58.511719 48.761719 57.878906 48.679688 57.257812 48.527344 Z M 62.019531 40.535156 L 63.101562 39.808594 C 64.597656 41.257812 65.5 43.214844 65.632812 45.296875 L 64.210938 45.519531 C 64.191406 43.628906 63.398438 41.828125 62.019531 40.535156 Z M 62.019531 40.535156 "/>
<path style=" stroke:none;fill-rule:nonzero;fill:rgb(100%,100%,100%);fill-opacity:1;" d="M 70.535156 48.734375 L 70.242188 47.402344 C 70.609375 47.429688 71.097656 47.445312 71.394531 47.445312 C 74.324219 47.445312 75.433594 46.617188 75.433594 45.382812 C 75.433594 44.40625 74.796875 43.84375 73.375 43.84375 C 71.828125 43.984375 70.386719 44.691406 69.324219 45.832031 L 68.183594 45.324219 C 67.96875 43.382812 68.410156 41.425781 69.441406 39.765625 L 70.757812 40.195312 C 69.9375 41.304688 69.539062 42.671875 69.632812 44.050781 C 70.820312 43.210938 72.222656 42.734375 73.671875 42.671875 C 75.65625 42.671875 76.882812 43.695312 76.882812 45.355469 C 76.882812 47.460938 75.226562 48.75 71.246094 48.75 C 71.054688 48.75 70.773438 48.734375 70.535156 48.734375 Z M 69.160156 38.890625 L 69.53125 37.585938 C 71.5 37.886719 73.441406 38.332031 75.34375 38.917969 L 74.988281 40.210938 C 73.089844 39.59375 71.140625 39.152344 69.160156 38.890625 Z M 69.160156 38.890625 "/>
<path style=" stroke:none;fill-rule:nonzero;fill:rgb(100%,100%,100%);fill-opacity:1;" d="M 81.167969 47.714844 C 82.695312 47.210938 84.0625 46.320312 85.148438 45.132812 C 84.289062 44.417969 83.363281 43.792969 82.382812 43.265625 L 83.195312 42.242188 C 84.183594 42.746094 85.125 43.339844 86.003906 44.019531 C 86.710938 42.988281 87.203125 41.820312 87.457031 40.59375 L 83.683594 40.59375 C 82.816406 42.003906 81.726562 43.257812 80.457031 44.316406 L 79.378906 43.382812 C 81.203125 41.875 82.617188 39.925781 83.492188 37.71875 L 84.910156 38.058594 C 84.75 38.476562 84.585938 38.90625 84.394531 39.304688 L 88.0625 39.304688 L 89.113281 39.792969 C 88.59375 43.894531 85.871094 47.378906 82.027344 48.871094 Z M 87.410156 37.363281 L 88.238281 36.960938 C 88.660156 37.527344 89.011719 38.136719 89.289062 38.785156 L 88.359375 39.214844 C 88.121094 38.558594 87.804688 37.9375 87.410156 37.363281 Z M 89.261719 37.214844 L 90.101562 36.8125 C 90.53125 37.394531 90.890625 38.023438 91.183594 38.683594 L 90.25 39.082031 C 90.003906 38.417969 89.671875 37.792969 89.261719 37.214844 Z M 89.261719 37.214844 "/>
<path style=" stroke:none;fill-rule:nonzero;fill:rgb(100%,100%,100%);fill-opacity:1;" d="M 95.734375 48.808594 L 94.980469 47.609375 C 98.140625 47.101562 100.394531 44.269531 100.1875 41.070312 L 93.972656 41.070312 L 93.972656 44.050781 L 92.480469 44.050781 L 92.480469 39.808594 L 96.191406 39.808594 L 96.191406 37.628906 L 97.6875 37.628906 L 97.6875 39.808594 L 100.453125 39.808594 L 101.816406 40.195312 C 101.636719 44.40625 100.230469 47.625 95.734375 48.808594 Z M 95.734375 48.808594 "/>
<path style=" stroke:none;fill-rule:nonzero;fill:rgb(100%,100%,100%);fill-opacity:1;" d="M 104.695312 39.914062 L 105.519531 38.695312 C 106.816406 39.289062 108.039062 40.03125 109.160156 40.90625 L 108.214844 42.183594 C 107.136719 41.285156 105.953125 40.523438 104.695312 39.914062 Z M 104.972656 47.222656 C 108.648438 46.671875 111.828125 44.371094 113.511719 41.054688 L 114.488281 42.152344 C 112.660156 45.574219 109.355469 47.957031 105.535156 48.601562 Z M 104.972656 47.222656 "/>
<path style=" stroke:none;fill-rule:nonzero;fill:rgb(100%,100%,100%);fill-opacity:1;" d="M 126.613281 47.9375 L 117.304688 47.9375 L 117.304688 39.113281 L 126.613281 39.113281 Z M 118.773438 40.476562 L 118.773438 46.570312 L 125.132812 46.570312 L 125.132812 40.476562 Z M 118.773438 40.476562 "/>
<path style=" stroke:none;fill-rule:nonzero;fill:rgb(100%,100%,100%);fill-opacity:1;" d="M 139.933594 43.976562 L 129.476562 43.976562 L 129.476562 42.464844 L 139.933594 42.464844 Z M 139.933594 43.976562 "/>
<path style=" stroke:none;fill-rule:nonzero;fill:rgb(100%,100%,100%);fill-opacity:1;" d="M 143.492188 37.675781 L 144.957031 37.675781 L 144.957031 41.46875 C 146.90625 42.28125 148.792969 43.230469 150.609375 44.304688 L 149.78125 45.605469 C 148.242188 44.621094 146.628906 43.753906 144.957031 43.011719 L 144.957031 48.734375 L 143.492188 48.734375 Z M 146.96875 38.476562 L 147.84375 38.058594 C 148.269531 38.6875 148.621094 39.367188 148.894531 40.078125 L 147.929688 40.507812 C 147.699219 39.789062 147.375 39.109375 146.96875 38.476562 Z M 148.65625 37.835938 L 149.542969 37.421875 C 149.992188 38.046875 150.367188 38.722656 150.652344 39.4375 L 149.691406 39.867188 C 149.429688 39.152344 149.078125 38.472656 148.65625 37.835938 Z M 148.65625 37.835938 "/>
<path style=" stroke:none;fill-rule:nonzero;fill:rgb(100%,100%,100%);fill-opacity:1;" d="M 38.921875 31.972656 C 38.957031 29.300781 40.355469 26.832031 42.625 25.433594 C 41.1875 23.375 38.863281 22.113281 36.355469 22.035156 C 33.714844 21.757812 31.15625 23.617188 29.8125 23.617188 C 28.441406 23.617188 26.371094 22.0625 24.140625 22.109375 C 21.207031 22.203125 18.539062 23.835938 17.113281 26.40625 C 14.074219 31.679688 16.339844 39.429688 19.25 43.691406 C 20.707031 45.78125 22.410156 48.113281 24.636719 48.03125 C 26.816406 47.9375 27.632812 46.636719 30.261719 46.636719 C 32.871094 46.636719 33.632812 48.03125 35.90625 47.976562 C 38.246094 47.9375 39.71875 45.878906 41.125 43.773438 C 42.171875 42.285156 42.976562 40.640625 43.511719 38.902344 C 40.730469 37.726562 38.925781 34.996094 38.921875 31.972656 Z M 38.921875 31.972656 "/>
<path style=" stroke:none;fill-rule:nonzero;fill:rgb(100%,100%,100%);fill-opacity:1;" d="M 34.628906 19.230469 C 35.90625 17.699219 36.535156 15.726562 36.382812 13.734375 C 34.433594 13.941406 32.632812 14.871094 31.339844 16.347656 C 30.066406 17.804688 29.417969 19.707031 29.542969 21.640625 C 31.519531 21.664062 33.394531 20.773438 34.628906 19.230469 Z M 34.628906 19.230469 "/>
</g>
</svg>
